<svg xmlns="http://www.w3.org/2000/svg" viewBox="0 0 135 140"><g stroke="#102525" stroke-width="4.8" stroke-linecap="round" stroke-linejoin="round"><path d="m47 99-6 24-16 2v9h32l9-25m25-7 9 24 15 2v7H83l-8-26" fill="#398d31"/><path d="m39 67 47-5 19 43-19 15-17-9-21 5-16-14Z" fill="#78472b"/><path d="m44 68 29 7 12-10-2 28-36 2Z" fill="#4b9d32"/><path d="m40 83-15 9-10-16 7-6 13 7m63-2 18 16 5 16-12 10-12-6 1-16-12-6" fill="#4f9e31"/><path d="m88 67 13-4 14 16-15 11-16-14Z" fill="#a56c42"/><path d="m97 68 4-14 6 17Z" fill="#d6dfdf"/><path d="M39 32 22 17l1 25 14 10m47-19 29-8-15 26-13 2" fill="#459832"/><path d="M32 33Q58 16 83 36l9 23-20 19-31-6-18-21Z" fill="#56ad36"/><path d="m39 38 13 5m25-3-11 4" stroke-width="6"/><path d="m44 49 4 1m24-1-3 3" stroke-width="6"/><path d="m35 62 34 6-6-13-7 5-10-5Z" fill="#142c20"/><path d="m40 58 5 10 3-13m15 2 3 10 4-7" fill="#fff0d2" stroke-width="2"/><path d="m42 28-6-23 15 10L63 2l6 17 16-8-7 21Z" fill="#ffc444"/><path d="m15 78 8-5L12 37 2 32l-1 17Z" fill="#955a2c"/><path d="m17 76 8-5 6 9-9 8-8-6Z" fill="#58aa36"/><path d="m44 92 42-3 4 10-46 7Z" fill="#46332a"/><circle cx="65" cy="98" r="8" fill="#adb8c1"/></g></svg>
