<svg xmlns="http://www.w3.org/2000/svg" width="128" height="300" viewBox="0 0 128 300" fill="none">
<defs>
    <linearGradient id="metal-rare" x1="0" y1="0" x2="0" y2="1">
      <stop offset="0" stop-color="#8dbfff"/>
      <stop offset="0.18" stop-color="#3578c8"/>
      <stop offset="0.52" stop-color="#173a66"/>
      <stop offset="0.82" stop-color="#3578c8"/>
      <stop offset="1" stop-color="#8dbfff"/>
    </linearGradient>
    <filter id="soft-glow-rare" x="-20%" y="-20%" width="140%" height="140%">
      <feGaussianBlur stdDeviation="2.4" result="blur"/>
      <feColorMatrix in="blur" type="matrix" values="0 0 0 0 0.310 0 0 0 0 0.612 0 0 0 0 1.000 0 0 0 0.48 0"/>
      <feMerge>
        <feMergeNode/>
        <feMergeNode in="SourceGraphic"/>
      </feMerge>
    </filter>
  </defs>
  <path d="M20 12H108L120 24V276L108 288H20L8 276V24Z" fill="none" stroke="#050604" stroke-width="9" stroke-linejoin="round"/>
  <path d="M20 12H108L120 24V276L108 288H20L8 276V24Z" fill="none" stroke="#173a66" stroke-width="5.4" stroke-linejoin="round"/>
  <path d="M20 12H108L120 24V276L108 288H20L8 276V24Z" fill="none" stroke="url(#metal-rare)" stroke-width="2.8" stroke-linejoin="round" filter="url(#soft-glow-rare)"/>
  <path d="M27 25H101L112 36V264L101 275H27L16 264V36Z" fill="none" stroke="#050604" stroke-opacity="0.72" stroke-width="3.2" stroke-linejoin="round"/>
  <path d="M27 25H101L112 36V264L101 275H27L16 264V36Z" fill="none" stroke="#8dbfff" stroke-opacity="0.5" stroke-width="1.15" stroke-linejoin="round"/>
  <path d="M31 37H97L105 45V255L97 263H31L23 255V45Z" fill="none" stroke="#ead9a0" stroke-opacity="0.2" stroke-width="1" stroke-linejoin="round"/>
  <path d="M18 61L35 44H51M77 44H93L110 61" fill="none" stroke="#8dbfff" stroke-opacity="0.66" stroke-width="1.45" stroke-linecap="round"/>
  <path d="M18 238L35 255H51M77 255H93L110 238" fill="none" stroke="#8dbfff" stroke-opacity="0.52" stroke-width="1.45" stroke-linecap="round"/>
  <path d="M15 92L22 99V201L15 208M113 92L106 99V201L113 208" fill="none" stroke="#8dbfff" stroke-opacity="0.32" stroke-width="1" stroke-linecap="round" stroke-linejoin="round"/>
  <path d="M29 76H46M82 76H99M29 224H46M82 224H99" stroke="#8dbfff" stroke-opacity="0.27" stroke-width="1" stroke-linecap="round"/>
</svg>
