<svg xmlns="http://www.w3.org/2000/svg" width="1536" height="768"><rect width="1536" height="768" fill="white"/><svg x="0" y="0" width="384" height="384" viewBox="602 567.5 135 135"><clipPath id="p0"><rect x="622" y="585" width="95" height="100"/></clipPath><g clip-path="url(#p0)"><g><g stroke="#0b151c" stroke-width="12" stroke-linejoin="round" fill="#ffc98b"><path d="M665.00 583.00Q692.00 594.00 721.00 605.00Q715.00 629.00 694.00 649.00Q685.00 659.00 680.00 672.00Q697.00 685.00 693.00 704.00Q668.00 714.00 611.00 707.00Q593.00 703.00 608.00 679.00Q613.00 669.00 625.00 659.00Q633.00 627.00 650.00 611.00Z"/></g></g></g></svg><svg x="384" y="0" width="384" height="384" viewBox="780.5 563.5 135 135"><clipPath id="p1"><rect x="800" y="581" width="96" height="100"/></clipPath><g clip-path="url(#p1)"><g><g stroke="#0b151c" stroke-width="12" stroke-linejoin="round" fill="#ffc98b"><path d="M802.00 598.00Q831.00 591.00 856.00 584.00Q879.00 603.00 879.00 633.00L883.00 659.00Q910.00 667.00 919.00 687.00Q925.00 706.00 908.00 709.00L832.00 709.00Q808.00 708.00 814.00 687.00Q821.00 667.00 814.00 644.00Q808.00 627.00 802.00 598.00Z"/></g></g></g></svg><svg x="768" y="0" width="384" height="384" viewBox="579.1 607.1 145.8 145.8"><clipPath id="p2"><rect x="598" y="643" width="108" height="74"/></clipPath><g clip-path="url(#p2)"><g><g stroke="#0b151c" stroke-width="12" stroke-linejoin="round" fill="#ffc98b"><path d="M665.00 583.00Q692.00 594.00 721.00 605.00Q715.00 629.00 694.00 649.00Q685.00 659.00 680.00 672.00Q697.00 685.00 693.00 704.00Q668.00 714.00 611.00 707.00Q593.00 703.00 608.00 679.00Q613.00 669.00 625.00 659.00Q633.00 627.00 650.00 611.00Z"/></g></g></g></svg><svg x="1152" y="0" width="384" height="384" viewBox="786.175 599.675 160.65 160.65"><clipPath id="p3"><rect x="807" y="643" width="119" height="74"/></clipPath><g clip-path="url(#p3)"><g><g stroke="#0b151c" stroke-width="12" stroke-linejoin="round" fill="#ffc98b"><path d="M802.00 598.00Q831.00 591.00 856.00 584.00Q879.00 603.00 879.00 633.00L883.00 659.00Q910.00 667.00 919.00 687.00Q925.00 706.00 908.00 709.00L832.00 709.00Q808.00 708.00 814.00 687.00Q821.00 667.00 814.00 644.00Q808.00 627.00 802.00 598.00Z"/></g></g></g></svg><svg x="0" y="384" width="384" height="384" viewBox="602 567.5 135 135"><clipPath id="p4"><rect x="622" y="585" width="95" height="100"/></clipPath><g clip-path="url(#p4)"><g><g stroke="#0b151c" stroke-width="12" stroke-linejoin="round" fill="#ffc98b"><path d="M665.00 583.00Q692.00 594.00 721.00 605.00Q715.00 629.00 694.00 649.00Q685.00 659.00 680.00 672.00Q697.00 685.00 693.00 704.00Q668.00 714.00 611.00 707.00Q593.00 703.00 608.00 679.00Q613.00 669.00 625.00 659.00Q633.00 627.00 650.00 611.00Z"/></g></g></g></svg><svg x="384" y="384" width="384" height="384" viewBox="780.5 563.5 135 135"><clipPath id="p5"><rect x="800" y="581" width="96" height="100"/></clipPath><g clip-path="url(#p5)"><g><g stroke="#0b151c" stroke-width="12" stroke-linejoin="round" fill="#ffc98b"><path d="M802.00 598.00Q831.00 591.00 856.00 584.00Q879.00 603.00 879.00 633.00L883.00 659.00Q910.00 667.00 919.00 687.00Q925.00 706.00 908.00 709.00L832.00 709.00Q808.00 708.00 814.00 687.00Q821.00 667.00 814.00 644.00Q808.00 627.00 802.00 598.00Z"/></g></g></g></svg><svg x="768" y="384" width="384" height="384" viewBox="579.1 607.1 145.8 145.8"><clipPath id="p6"><rect x="598" y="643" width="108" height="74"/></clipPath><g clip-path="url(#p6)"><g><g stroke="#0b151c" stroke-width="12" stroke-linejoin="round" fill="#ffc98b"><path d="M665.00 583.00Q692.00 594.00 721.00 605.00Q715.00 629.00 694.00 649.00Q685.00 659.00 680.00 672.00Q697.00 685.00 693.00 704.00Q668.00 714.00 611.00 707.00Q593.00 703.00 608.00 679.00Q613.00 669.00 625.00 659.00Q633.00 627.00 650.00 611.00Z"/></g></g></g></svg><svg x="1152" y="384" width="384" height="384" viewBox="786.175 599.675 160.65 160.65"><clipPath id="p7"><rect x="807" y="643" width="119" height="74"/></clipPath><g clip-path="url(#p7)"><g><g stroke="#0b151c" stroke-width="12" stroke-linejoin="round" fill="#ffc98b"><path d="M802.00 598.00Q831.00 591.00 856.00 584.00Q879.00 603.00 879.00 633.00L883.00 659.00Q910.00 667.00 919.00 687.00Q925.00 706.00 908.00 709.00L832.00 709.00Q808.00 708.00 814.00 687.00Q821.00 667.00 814.00 644.00Q808.00 627.00 802.00 598.00Z"/></g></g></g></svg></svg>